<mxfile host="app.diagrams.net" modified="2024-03-27T15:28:27.845Z" agent="Mozilla/5.0 (Windows NT 10.0; Win64; x64) AppleWebKit/537.36 (KHTML, like Gecko) Chrome/122.0.0.0 Safari/537.36 Edg/122.0.0.0" version="23.1.2" etag="eNcppMFnDVkkn0unT5bN" type="github">
  <diagram name="Page-1" id="IRu8aAkjgRMUX_1SEwYO">
    <mxGraphModel>
      <root>
        <mxCell id="0" />
        <mxCell id="1" parent="0" />
      </root>
    </mxGraphModel>
  </diagram>
</mxfile>
